<?xml version="1.0" standalone="no"?> <!DOCTYPE svg PUBLIC "-//W3C//DTD SVG 20010904//EN" "http://www.w3.org/TR/2001/REC-SVG-20010904/DTD/svg10.dtd"> <svg version="1.0" xmlns="http://www.w3.org/2000/svg" width="576.000000pt" height="576.000000pt" viewBox="0 0 576.000000 576.000000" preserveAspectRatio="xMidYMid meet"> <g transform="translate(0.000000,576.000000) scale(0.100000,-0.100000)" fill="#447452" stroke="none"> <path d="M2350 5479 c-292 -109 -675 -228 -788 -246 -53 -8 -111 -19 -128 -24 -17 -5 -39 -9 -50 -9 -10 0 -41 -23 -69 -50 -27 -28 -53 -50 -57 -50 -5 0 -8 -7 -8 -16 0 -14 8 -16 49 -10 63 8 73 -6 34 -47 -16 -18 -42 -50 -59 -71 -16 -21 -41 -55 -56 -75 -61 -80 -66 -91 -58 -124 5 -18 11 -59 14 -92 l6 -60 -59 -78 c-41 -55 -57 -85 -54 -100 2 -12 8 -40 13 -62 5 -22 14 -67 20 -100 6 -33 15 -78 20 -100 5 -22 18 -92 30 -155 11 -63 25 -129 30 -146 6 -17 10 -40 10 -52 0 -11 4 -31 9 -44 5 -13 14 -43 21 -68 7 -25 17 -55 23 -67 8 -17 6 -37 -7 -81 -17 -55 -17 -61 -2 -90 9 -18 21 -32 27 -32 6 0 8 -8 4 -19 -3 -10 0 -32 6 -47 6 -16 15 -38 20 -49 4 -11 13 -37 20 -57 13 -38 24 -48 31 -27 4 12 71 14 118 4 38 -8 45 7 15 35 -14 13 -25 27 -25 32 0 4 18 17 41 28 48 25 64 17 73 -38 10 -62 12 -63 106 -39 79 20 85 24 88 50 2 15 8 27 13 27 10 0 59 -45 59 -54 0 -3 -27 -26 -60 -52 -33 -26 -60 -50 -60 -55 0 -4 19 -5 42 -1 l43 5 -18 -24 c-29 -40 -47 -86 -47 -123 0 -24 -5 -36 -17 -39 -17 -4 -17 -5 0 -6 20 -1 22 -25 3 -43 -11 -11 -11 -15 3 -25 13 -9 14 -14 3 -24 -14 -15 -16 -109 -2 -109 6 0 10 3 11 8 3 24 10 57 33 137 14 50 35 131 47 180 19 80 28 110 59 190 28 72 33 91 32 126 -2 34 -23 83 -43 99 -3 3 -9 22 -13 42 -8 44 -37 68 -83 68 -18 0 -33 4 -33 9 0 6 -21 13 -47 16 -27 3 -66 10 -88 15 -22 4 -76 14 -120 20 l-81 12 -58 -33 -59 -32 6 153 c4 84 7 199 7 256 l0 102 158 137 c86 75 178 156 204 178 26 23 48 48 48 56 0 8 3 11 7 8 3 -4 12 -2 19 4 8 7 76 10 191 8 292 -4 300 -4 503 20 440 50 457 53 575 79 50 11 126 28 170 37 44 10 98 22 120 27 22 5 59 11 83 15 23 3 45 10 48 14 3 5 14 9 25 9 12 0 17 4 13 11 -4 6 -20 8 -40 4 -30 -5 -34 -3 -34 15 0 24 -13 26 -30 5 -16 -19 -34 -20 -27 -1 5 12 -2 13 -31 9 -20 -3 -41 -10 -47 -14 -14 -13 -43 -11 -48 4 -3 10 -9 10 -26 0 -11 -7 -30 -13 -42 -13 -18 0 -19 2 -9 15 10 12 10 15 -3 15 -8 0 -18 -6 -21 -12 -4 -9 -10 -6 -22 10 -9 12 -22 22 -28 22 -6 0 -5 -4 3 -9 18 -11 7 -43 -13 -35 -8 3 -17 1 -21 -5 -3 -6 -19 -11 -34 -11 -16 0 -51 -7 -78 -16 -43 -14 -65 -14 -159 -4 -187 20 -261 22 -284 10 -12 -6 -25 -8 -28 -4 -4 4 -1 9 6 11 6 3 12 9 12 14 0 14 -24 11 -46 -5 -18 -14 -18 -15 14 -26 17 -7 32 -16 32 -21 0 -5 9 -9 20 -9 36 0 21 -16 -27 -29 -34 -9 -49 -9 -51 -1 -3 7 -8 7 -15 1 -16 -12 -114 -32 -156 -31 -18 0 -39 -4 -46 -10 -10 -8 -15 -8 -20 0 -5 8 -11 8 -21 -1 -11 -9 -20 -9 -37 0 -26 14 -176 20 -184 8 -3 -5 -18 -6 -34 -3 -19 4 -29 1 -29 -7 0 -8 -4 -7 -10 3 -7 10 -12 12 -17 4 -10 -14 -62 -24 -69 -13 -9 16 -36 9 -66 -16 -33 -28 -50 -32 -42 -10 9 21 -2 19 -25 -7 -15 -15 -36 -23 -76 -26 -60 -5 -76 -22 -21 -22 18 0 61 -3 95 -6 51 -6 59 -9 49 -21 -6 -8 -20 -12 -31 -9 -10 2 -26 -3 -35 -12 -10 -9 -30 -23 -45 -29 -15 -7 -27 -19 -27 -28 0 -8 -7 -15 -15 -15 -9 0 -18 -7 -21 -15 -4 -8 -13 -15 -21 -15 -9 0 -13 -6 -9 -15 3 -8 0 -15 -7 -15 -7 0 -27 -23 -46 -50 -35 -51 -51 -62 -51 -35 0 8 5 15 10 15 6 0 10 6 10 14 0 8 20 54 45 103 45 88 55 123 34 123 -6 0 -9 -6 -6 -14 8 -19 -28 -60 -44 -50 -9 5 -10 2 -6 -9 4 -11 -6 -29 -28 -52 -31 -33 -34 -35 -44 -18 -9 16 -12 16 -21 3 -7 -11 -5 -16 5 -18 22 -5 18 -25 -9 -46 -14 -10 -23 -23 -20 -30 3 -7 -2 -19 -11 -26 -12 -10 -21 -10 -45 0 -38 16 -40 39 -4 32 19 -3 25 -1 20 7 -4 6 -13 11 -20 11 -19 0 -28 60 -17 107 11 45 34 106 42 113 7 6 20 85 24 140 4 58 57 180 78 180 16 0 40 56 33 76 -3 8 1 17 9 21 12 4 13 9 5 18 -8 10 -6 15 10 20 11 3 18 11 15 16 -8 13 70 89 92 89 10 1 49 11 86 24 49 17 67 20 63 10 -5 -14 18 -9 41 8 7 5 22 6 35 2 20 -6 21 -5 9 10 -12 14 -9 16 29 16 24 0 56 8 74 19 17 10 56 24 86 31 30 6 69 18 87 26 17 8 36 14 42 14 6 0 11 8 12 18 0 10 3 12 6 5 6 -16 33 -17 33 -2 0 8 4 8 14 0 11 -9 15 -7 19 10 5 18 9 20 21 10 12 -10 16 -9 24 5 6 11 22 16 50 16 23 0 44 3 47 9 4 5 19 9 34 9 15 0 32 5 39 12 9 9 20 9 48 -1 37 -14 59 -7 34 10 -12 9 -12 10 3 5 10 -3 26 0 37 6 25 16 40 0 16 -17 -10 -8 -15 -18 -11 -24 9 -16 25 -13 25 4 0 21 46 38 70 25 10 -5 32 -10 49 -10 17 0 31 -4 31 -9 0 -15 -41 -24 -53 -12 -14 14 -87 15 -87 1 0 -5 18 -10 39 -10 22 0 43 -4 46 -10 3 -5 24 -10 46 -10 33 0 41 4 49 25 8 20 13 23 32 16 32 -12 34 -29 4 -37 -41 -10 -30 -24 18 -24 25 0 67 -5 94 -12 43 -9 56 -9 85 5 38 18 87 23 87 8 0 -12 -26 -21 -63 -21 -18 0 -27 -4 -21 -9 12 -11 143 -21 149 -11 8 13 -6 39 -23 42 -10 2 6 4 33 3 28 0 56 -4 63 -9 7 -4 20 -2 29 6 14 11 15 11 11 -2 -6 -19 41 -45 56 -30 12 12 63 13 70 2 3 -5 21 -9 40 -10 41 -2 102 -25 129 -50 10 -9 26 -17 35 -17 10 0 17 -7 17 -15 0 -8 8 -18 18 -22 9 -4 17 -13 17 -20 0 -7 12 -21 28 -30 59 -37 67 -43 74 -53 4 -5 4 -13 2 -17 -11 -17 8 -29 23 -16 14 11 15 10 9 -10 -5 -15 -3 -22 6 -22 20 0 36 -43 24 -63 -9 -13 -3 -24 32 -55 23 -21 42 -42 42 -48 0 -11 61 -54 77 -54 6 0 10 -8 9 -17 -1 -12 9 -20 29 -24 17 -4 24 -7 18 -8 -25 -2 -13 -20 22 -32 35 -13 80 -66 106 -126 15 -35 29 -43 29 -17 0 31 25 7 35 -34 8 -33 13 -40 23 -30 9 9 12 9 12 -3 0 -8 -5 -20 -11 -26 -8 -8 -5 -24 10 -56 25 -55 25 -61 6 -77 -12 -10 -13 -15 -3 -28 10 -12 10 -16 1 -19 -15 -5 -18 -43 -4 -43 13 0 -5 -71 -21 -82 -10 -8 -9 -9 4 -5 22 8 31 -20 10 -32 -14 -8 -15 -13 -4 -30 16 -27 15 -34 -3 -27 -14 5 -21 -7 -15 -29 7 -24 6 -111 0 -120 -4 -5 -10 -38 -13 -73 -3 -37 -14 -77 -26 -98 -12 -19 -19 -39 -17 -42 2 -4 -10 -8 -27 -9 -18 -2 -36 -8 -42 -16 -5 -7 -18 -11 -28 -9 -11 2 -28 -6 -38 -17 -11 -12 -32 -21 -48 -21 -16 0 -31 -7 -35 -15 -3 -8 -15 -15 -26 -15 -22 0 -130 -78 -130 -93 0 -5 -7 -7 -15 -3 -9 3 -19 -3 -25 -14 -6 -11 -16 -20 -23 -20 -7 0 -6 4 3 10 12 8 13 13 3 30 -7 11 -13 28 -13 39 0 11 -5 21 -12 23 -8 3 -13 35 -15 94 -3 81 -8 104 -33 155 -5 10 -4 21 3 28 8 8 5 11 -11 11 -15 0 -24 8 -28 28 -4 15 -15 44 -26 65 -14 29 -23 37 -37 32 -24 -7 -51 4 -51 21 0 8 -4 14 -10 14 -5 0 -10 7 -10 15 0 8 -6 15 -14 15 -8 0 -21 25 -32 64 -13 48 -22 62 -33 58 -10 -4 -12 -1 -6 9 12 19 6 69 -11 93 -9 13 -12 33 -8 58 5 26 2 45 -9 61 -8 13 -17 37 -19 53 -3 27 -1 29 27 26 16 -2 33 -8 36 -14 8 -12 49 -1 49 13 0 5 -11 7 -25 3 -22 -5 -25 -3 -25 19 0 14 7 27 15 31 8 3 15 14 15 25 0 11 9 25 21 31 12 7 19 20 18 33 -2 26 8 54 33 86 19 26 24 61 8 61 -5 0 -10 -8 -10 -18 0 -9 -12 -23 -27 -29 -16 -7 -40 -23 -55 -35 -14 -13 -63 -49 -108 -82 -61 -44 -79 -63 -74 -75 4 -9 10 -36 14 -61 7 -42 20 -108 40 -205 4 -22 13 -66 19 -98 18 -101 19 -103 178 -290 l73 -85 5 -114 c9 -199 29 -439 35 -443 4 -2 24 -5 46 -6 21 -1 45 -7 53 -13 19 -15 38 15 46 75 6 43 16 59 85 135 79 88 89 94 239 153 29 12 70 21 91 21 32 0 41 -5 64 -40 28 -43 46 -51 47 -22 1 26 17 177 28 267 6 44 15 125 21 180 5 55 15 143 20 195 6 52 14 138 19 190 4 53 11 101 15 108 4 8 0 24 -11 40 -10 15 -20 32 -23 37 -17 33 -141 213 -156 226 -11 9 -76 45 -146 80 l-128 64 -2 50 c0 27 -1 56 -1 63 1 7 -46 56 -104 110 -57 53 -125 125 -150 160 -26 34 -56 64 -67 67 -12 2 -37 7 -56 10 -19 3 -57 10 -85 15 -27 5 -75 14 -105 19 -30 5 -82 15 -115 21 -33 6 -87 15 -120 21 -33 5 -87 14 -120 20 -77 13 -162 26 -250 38 -139 20 -150 21 -183 27 -18 3 -39 7 -45 8 -7 2 -59 -14 -117 -35z m520 -181 c0 -19 -2 -20 -10 -8 -13 19 -13 30 0 30 6 0 10 -10 10 -22z m75 2 c0 -8 -8 -16 -19 -18 -22 -5 -40 19 -23 30 18 12 42 5 42 -12z m-365 -578 c0 -5 -22 -8 -50 -8 -27 1 -50 4 -50 9 0 4 23 7 50 7 28 0 50 -4 50 -8z m920 -791 c0 -5 -7 -12 -16 -15 -22 -9 -24 -8 -24 9 0 8 9 15 20 15 11 0 20 -4 20 -9z m-1698 -348 c15 -15 28 -32 28 -37 0 -7 -3 -8 -8 -1 -4 6 -22 23 -40 38 -19 15 -28 27 -21 27 7 0 26 -12 41 -27z m-179 -82 c65 -5 123 -13 130 -20 6 -6 19 -11 28 -11 10 0 20 -4 23 -9 4 -5 -3 -7 -14 -4 -26 7 -26 -14 0 -37 20 -18 20 -18 -26 -15 -25 1 -50 8 -54 15 -10 16 -94 16 -143 1 -17 -5 -52 -15 -77 -22 -25 -7 -55 -18 -67 -26 -20 -12 -25 -11 -43 7 -11 11 -20 25 -20 32 0 6 -10 22 -22 35 -19 21 -20 26 -8 34 11 8 10 9 -7 4 -18 -5 -22 -3 -17 9 9 24 57 25 317 7z m-301 -128 c39 -38 46 -61 26 -81 -17 -17 -28 -15 -28 6 0 9 -11 35 -25 57 -41 67 -30 74 27 18z"/> <path d="M3108 5223 c-10 -2 -18 -9 -18 -14 0 -14 20 -11 36 6 16 15 13 16 -18 8z"/> <path d="M3125 5190 c-3 -5 0 -10 7 -10 7 0 27 -12 43 -28 39 -35 113 -73 120 -62 3 5 -6 16 -20 25 -14 8 -37 23 -51 33 -88 57 -89 58 -99 42z"/> <path d="M2558 5120 c3 -24 9 -30 29 -30 22 0 24 -2 13 -15 -9 -10 -16 -12 -24 -6 -15 13 -58 2 -53 -13 2 -6 12 -11 23 -11 10 0 25 -4 33 -9 8 -5 16 -4 22 5 7 11 9 11 9 -2 0 -12 12 -18 43 -22 23 -2 53 -7 67 -11 14 -3 19 -3 12 0 -8 3 -39 31 -70 60 -30 30 -61 54 -69 54 -7 0 -16 7 -19 15 -10 26 -21 16 -16 -15z"/> <path d="M2425 5070 c-15 -7 -10 -9 23 -9 23 -1 42 4 42 9 0 12 -37 12 -65 0z"/> <path d="M3250 4960 c0 -5 6 -10 14 -10 8 0 18 5 21 10 3 6 -3 10 -14 10 -12 0 -21 -4 -21 -10z"/> <path d="M2872 4930 c7 -11 17 -20 22 -20 5 0 29 -17 54 -37 27 -22 47 -32 49 -26 3 7 11 9 19 6 13 -5 13 -7 3 -14 -8 -4 -10 -11 -7 -14 4 -4 16 0 28 8 14 10 18 17 10 22 -15 9 17 45 40 45 9 0 25 7 36 15 18 14 17 14 -13 15 -17 0 -34 -4 -37 -9 -9 -14 -78 -19 -111 -8 -16 5 -44 15 -62 23 -41 19 -45 18 -31 -6z"/> <path d="M3171 4936 c-9 -10 -8 -15 3 -19 16 -6 40 16 29 26 -10 11 -19 8 -32 -7z"/> <path d="M2010 4916 c0 -3 14 -12 30 -21 27 -14 30 -14 30 0 0 8 -6 15 -14 15 -8 0 -21 3 -30 6 -9 3 -16 4 -16 0z"/> <path d="M2095 4880 c-3 -5 3 -10 14 -10 12 0 21 5 21 10 0 6 -6 10 -14 10 -8 0 -18 -4 -21 -10z"/> <path d="M2350 4780 c0 -5 9 -10 20 -10 11 0 20 5 20 10 0 6 -9 10 -20 10 -11 0 -20 -4 -20 -10z"/> <path d="M2312 4758 c3 -7 15 -14 29 -16 24 -4 24 -3 4 12 -24 19 -38 20 -33 4z"/> <path d="M2095 4387 c-11 -7 -23 -16 -27 -21 -4 -6 -41 -9 -83 -8 -52 2 -75 -1 -70 -8 3 -5 23 -10 44 -10 20 0 41 -4 47 -9 5 -5 25 -11 45 -15 34 -6 38 -4 58 29 32 54 27 67 -14 42z"/> <path d="M1830 4370 c-11 -7 -5 -10 23 -10 20 0 37 5 37 10 0 13 -40 13 -60 0z"/> <path d="M3640 4330 c0 -21 17 -46 25 -38 4 4 0 17 -9 30 -10 14 -16 17 -16 8z"/> <path d="M3480 4264 c0 -12 9 -32 20 -45 25 -31 26 -9 0 33 -17 28 -20 30 -20 12z"/> <path d="M1537 4226 c-4 -15 -6 -31 -2 -34 10 -10 16 6 13 35 l-3 28 -8 -29z"/> <path d="M1515 4158 c-2 -7 -5 -34 -8 -60 -3 -36 -1 -48 9 -48 10 0 14 16 14 60 0 57 -6 76 -15 48z"/> <path d="M2022 4080 c0 -19 2 -27 5 -17 2 9 2 25 0 35 -3 9 -5 1 -5 -18z"/> <path d="M1488 4013 c-1 -15 -1 -38 0 -50 0 -13 -3 -23 -7 -23 -5 0 -11 -15 -14 -32 -3 -18 -9 -42 -13 -53 -6 -19 -5 -18 15 2 11 12 21 28 21 36 0 7 4 17 9 23 15 14 17 117 3 122 -7 2 -13 -8 -14 -25z"/> <path d="M3007 3943 c-11 -10 -8 -43 3 -43 6 0 10 11 10 25 0 26 -2 29 -13 18z"/> <path d="M2008 3844 c3 -15 8 -22 14 -16 9 9 1 42 -12 42 -4 0 -5 -12 -2 -26z"/> <path d="M2728 3795 c-2 -2 -60 -15 -128 -29 -69 -14 -138 -28 -155 -31 -52 -11 -118 -24 -180 -34 -69 -12 -115 -29 -115 -43 0 -11 -39 -68 -62 -89 -29 -27 -21 -60 27 -114 24 -27 45 -55 45 -61 0 -6 9 -19 20 -29 11 -10 20 -23 20 -30 0 -6 5 -16 11 -22 8 -8 29 2 78 38 37 27 71 49 75 49 4 0 21 10 38 21 42 31 60 10 18 -22 -17 -13 -48 -39 -68 -57 -32 -27 -35 -34 -21 -42 9 -5 38 -28 65 -50 45 -37 50 -39 62 -23 10 14 10 19 0 22 -7 2 -21 12 -32 23 -20 18 -20 18 2 18 12 0 22 -4 22 -10 0 -5 9 -10 20 -10 26 0 25 20 0 53 -21 27 -18 57 6 57 8 0 23 6 34 13 23 14 36 2 46 -43 3 -14 9 -32 13 -40 10 -19 50 -25 64 -11 6 6 24 11 40 11 45 0 67 17 67 50 0 25 4 30 23 30 13 0 27 -3 31 -7 8 -8 108 -31 138 -32 10 -1 21 12 28 34 6 19 16 35 21 35 6 0 29 13 52 28 23 15 59 37 80 47 46 24 44 42 -6 68 -20 10 -46 32 -58 48 -11 16 -24 29 -29 29 -5 0 -53 25 -107 56 -54 31 -117 67 -139 80 -23 13 -43 21 -46 19z m301 -204 c24 -14 28 -41 5 -41 -10 0 -12 -4 -7 -12 4 -7 6 -21 4 -32 -3 -20 -7 -25 -56 -78 l-29 -32 -106 38 c-89 31 -121 38 -210 42 -58 3 -114 6 -125 6 -56 4 -85 -4 -112 -29 -20 -19 -42 -29 -67 -30 -30 -1 -35 1 -26 11 8 10 6 15 -10 19 -11 3 -20 12 -20 21 0 22 -19 20 -26 -1 -3 -10 -12 -30 -20 -45 -8 -14 -14 -34 -14 -44 0 -11 -12 1 -30 29 -16 26 -37 47 -45 47 -11 0 -15 7 -13 21 2 17 15 25 58 36 30 8 66 16 80 18 14 2 93 14 175 28 83 13 155 22 161 20 7 -2 14 -1 17 4 8 13 392 17 416 4z"/> <path d="M2087 3653 c-35 -4 -37 -6 -31 -31 9 -34 13 -42 25 -42 5 0 9 9 9 20 0 11 3 20 8 20 4 0 13 9 20 20 7 11 11 19 10 18 -2 -1 -20 -3 -41 -5z"/> <path d="M4026 3425 c-44 -30 -87 -62 -96 -72 -19 -21 -44 -92 -36 -100 11 -12 61 22 118 81 32 33 59 58 61 55 26 -31 67 -102 73 -123 3 -14 10 -29 15 -32 15 -9 10 -61 -6 -68 -9 -3 -15 0 -15 9 0 8 -5 15 -11 15 -6 0 -9 -22 -8 -57 1 -32 -3 -91 -10 -131 -14 -79 -11 -93 14 -69 9 10 11 18 5 22 -6 4 -6 12 0 23 26 48 51 121 60 176 12 73 13 246 2 264 -9 14 -73 62 -81 61 -3 0 -42 -25 -85 -54z"/> <path d="M3866 3197 c-7 -19 -17 -48 -21 -66 -3 -17 -11 -31 -16 -31 -5 0 -9 -28 -9 -61 0 -58 -3 -65 -50 -129 -27 -37 -50 -72 -50 -78 0 -12 80 -4 95 9 5 5 21 9 37 9 21 0 45 18 103 78 l75 77 -6 55 c-6 51 -11 59 -62 105 -78 71 -79 71 -96 32z m49 -109 c57 -38 58 -72 2 -61 l-32 6 25 -21 c25 -20 25 -21 5 -36 -24 -17 -40 -7 -50 31 -4 16 -1 31 10 42 21 24 21 48 0 31 -16 -14 -18 -10 -9 14 8 20 8 20 49 -6z"/> <path d="M2541 3211 c-8 -5 3 -11 30 -15 37 -6 60 -2 48 8 -11 9 -66 14 -78 7z"/> <path d="M1511 3176 c-18 -26 -18 -33 -6 -42 15 -11 116 3 131 19 4 4 18 7 30 7 13 0 26 5 29 10 4 6 -16 10 -54 10 -33 0 -62 4 -65 9 -15 24 -46 18 -65 -13z"/> <path d="M2640 3186 c0 -10 28 -13 41 -5 10 6 7 9 -13 9 -16 0 -28 -2 -28 -4z"/> <path d="M1307 3140 c-3 -8 -8 -42 -11 -75 -3 -33 -9 -83 -12 -111 -5 -42 0 -69 29 -155 19 -57 38 -119 42 -136 4 -18 11 -35 16 -38 5 -4 9 -14 9 -23 0 -18 156 -506 171 -534 5 -10 9 -25 9 -33 0 -8 4 -23 9 -33 5 -9 15 -37 21 -62 15 -53 48 -148 61 -172 5 -10 13 -26 18 -35 5 -10 23 -49 40 -88 18 -38 51 -109 74 -156 41 -84 44 -87 107 -119 53 -27 75 -32 120 -31 30 1 59 6 65 12 5 5 22 9 37 9 32 0 38 16 9 25 -23 7 -35 33 -22 49 14 16 96 39 118 32 34 -11 113 -17 113 -9 0 5 -21 15 -47 23 -49 14 -230 16 -340 4 l-53 -6 0 106 c0 64 -4 106 -10 106 -5 0 -10 -11 -10 -25 0 -14 -7 -28 -16 -32 -11 -4 -13 -13 -9 -35 7 -29 7 -29 -14 -11 -12 9 -21 24 -21 31 0 8 -6 12 -14 9 -9 -4 -17 2 -21 14 -4 12 -12 18 -21 15 -17 -7 -19 10 -1 21 23 15 82 33 109 33 15 0 31 6 35 14 5 9 41 15 113 20 91 6 128 9 150 15 3 0 12 29 19 64 8 34 19 71 26 82 16 26 25 64 17 69 -4 2 -65 -1 -137 -6 -71 -5 -166 -10 -210 -12 -82 -2 -85 -4 -73 -46 3 -8 3 -12 1 -7 -10 17 -23 5 -23 -21 0 -16 -10 -48 -22 -73 -12 -24 -21 -50 -20 -57 2 -7 -4 -15 -13 -18 -8 -3 -15 -14 -15 -23 -1 -31 -29 33 -36 82 -4 27 -13 55 -21 62 -9 9 -11 24 -7 41 4 14 2 29 -3 33 -10 6 -47 82 -57 117 -6 19 -1 22 45 28 60 8 85 -4 119 -58 25 -42 36 -45 43 -13 3 12 9 33 13 47 l7 25 -25 -22 c-19 -18 -27 -20 -36 -11 -16 16 -15 28 1 28 7 0 22 8 33 18 36 32 71 45 106 38 73 -14 137 -17 212 -8 44 5 102 5 130 0 28 -4 98 -9 156 -10 86 -2 105 1 105 12 0 10 -14 17 -40 21 -39 5 -168 57 -312 125 l-72 34 -50 -31 -51 -31 -63 16 c-35 9 -68 16 -73 16 -5 0 -40 -38 -79 -85 -38 -47 -75 -85 -81 -85 -7 0 -15 10 -19 23 -3 12 -10 31 -15 42 -5 11 -11 32 -14 48 -7 31 -24 36 -32 10 -26 -76 -44 -94 -44 -44 0 17 -5 33 -10 36 -6 4 -7 13 -1 22 9 16 -1 56 -25 106 -18 37 -18 44 6 78 17 23 20 37 14 79 -4 27 -11 50 -16 50 -6 0 -7 -11 -4 -24 7 -27 -1 -56 -15 -56 -5 0 -9 18 -9 41 0 29 -4 40 -13 36 -9 -3 -11 6 -9 34 5 50 22 61 22 15 0 -20 5 -36 10 -36 6 0 10 18 10 39 0 22 -4 43 -10 46 -5 3 -10 17 -10 31 0 15 -15 38 -39 62 -21 20 -41 45 -44 55 -4 9 -13 17 -22 17 -8 0 -15 7 -15 15 0 8 -4 15 -9 15 -5 0 -13 10 -17 22 -4 13 -14 29 -23 35 -15 12 -14 14 3 27 10 8 15 20 11 26 -10 17 -15 90 -6 90 9 0 5 45 -7 85 -7 20 -11 25 -15 15z m703 -964 c0 -2 3 -11 6 -20 4 -12 0 -16 -15 -16 -14 0 -21 6 -21 20 0 11 7 20 15 20 8 0 15 -2 15 -4z m-140 -340 c11 -25 20 -50 20 -55 0 -17 10 -13 28 9 10 12 28 21 42 22 14 1 30 5 35 9 6 4 36 10 68 14 47 6 56 5 52 -6 -7 -19 -58 -41 -78 -34 -8 4 -18 2 -22 -4 -3 -6 -17 -11 -30 -11 -13 0 -27 -5 -31 -11 -4 -7 -24 -9 -55 -5 -29 4 -50 2 -54 -4 -11 -18 -25 -10 -25 15 0 14 -4 25 -10 25 -13 0 -13 21 0 54 14 39 37 31 60 -18z"/> <path d="M2460 3115 c7 -8 20 -15 28 -15 13 0 12 3 -4 15 -25 19 -40 19 -24 0z"/> <path d="M3653 3100 c3 -11 -1 -23 -8 -28 -8 -4 -16 -33 -19 -72 -3 -36 -8 -75 -12 -88 -3 -12 -1 -28 5 -35 8 -10 1 -23 -31 -56 -23 -23 -52 -44 -65 -47 -13 -4 -23 -12 -23 -20 0 -8 1 -14 3 -14 13 0 114 43 124 53 12 11 28 116 40 265 4 45 2 62 -7 62 -7 0 -10 -8 -7 -20z"/> <path d="M3424 3097 c-11 -7 -56 -35 -100 -63 -43 -28 -114 -73 -157 -99 -67 -41 -82 -55 -103 -98 -13 -28 -24 -59 -24 -69 0 -10 -4 -18 -10 -18 -5 0 -10 -8 -10 -19 0 -10 -7 -35 -15 -54 -20 -49 -19 -60 5 -40 11 10 23 33 26 53 3 19 13 46 21 59 8 12 13 31 10 40 -2 10 4 23 14 30 11 6 19 18 19 27 0 15 2 15 25 0 35 -23 46 -20 39 11 -6 22 -4 25 10 20 26 -10 78 23 72 46 -5 19 27 42 44 32 10 -6 70 52 70 68 0 5 5 7 12 5 6 -2 20 4 30 14 10 10 25 18 34 18 11 0 14 5 10 16 -5 13 -1 15 20 10 24 -6 25 -5 11 9 -18 17 -24 17 -53 2z"/> <path d="M2575 3090 c-4 -6 -11 -8 -16 -5 -5 4 -9 -3 -9 -14 0 -28 13 -26 27 4 11 25 10 34 -2 15z"/> <path d="M3520 3075 c0 -8 7 -15 16 -15 14 0 14 3 4 15 -7 8 -14 15 -16 15 -2 0 -4 -7 -4 -15z"/> <path d="M3500 3014 c0 -14 4 -23 10 -19 6 3 10 15 10 26 0 10 -4 19 -10 19 -5 0 -10 -12 -10 -26z"/> <path d="M4070 2901 c0 -5 -10 -11 -22 -13 -13 -2 -22 -9 -21 -15 1 -6 -4 -17 -12 -23 -8 -7 -15 -16 -15 -21 0 -5 17 7 37 26 20 19 43 35 50 35 7 0 13 5 13 10 0 6 -7 10 -15 10 -8 0 -15 -4 -15 -9z"/> <path d="M2320 2900 c-1 -3 -3 -36 -5 -75 -2 -38 -6 -89 -10 -112 -3 -27 -2 -43 5 -43 5 0 10 6 10 13 0 6 14 27 31 46 24 28 29 40 23 63 -5 26 -53 120 -54 108z"/> <path d="M2016 2761 c-3 -5 6 -14 22 -19 15 -5 36 -14 47 -18 18 -7 18 -6 6 9 -7 9 -17 14 -22 11 -5 -3 -9 2 -9 10 0 17 -35 22 -44 7z"/> <path d="M3388 2737 c-27 -31 -37 -67 -19 -67 5 0 14 7 21 15 7 8 18 15 24 15 6 0 12 16 13 35 2 43 -4 43 -39 2z"/> <path d="M1719 2753 c0 -4 0 -54 1 -109 1 -56 -3 -110 -8 -120 -19 -35 -40 -89 -48 -119 -4 -16 -10 -32 -14 -35 -13 -9 -23 -90 -11 -90 6 0 11 5 11 10 0 6 16 26 35 46 38 38 40 45 24 75 -5 11 -8 28 -6 37 3 14 6 12 15 -8 10 -22 11 -19 11 30 1 93 6 148 14 156 4 4 7 1 7 -8 0 -19 48 -70 89 -94 33 -20 40 -34 16 -34 -17 0 -20 -26 -4 -36 8 -5 8 -8 0 -14 -7 -4 -13 -18 -15 -31 -1 -14 -5 -30 -9 -36 -3 -5 -4 -13 0 -17 12 -12 23 -6 23 14 0 11 4 28 9 38 18 36 31 90 33 139 2 45 -1 55 -25 77 -15 14 -33 25 -40 23 -7 -1 -11 4 -9 12 2 8 -12 29 -30 48 -36 37 -67 58 -69 46z"/> <path d="M3920 2745 c0 -9 5 -15 11 -13 6 2 11 8 11 13 0 5 -5 11 -11 13 -6 2 -11 -4 -11 -13z"/> <path d="M3445 2730 c-3 -5 3 -10 14 -10 12 0 21 5 21 10 0 6 -6 10 -14 10 -8 0 -18 -4 -21 -10z"/> <path d="M3614 2718 c-4 -13 -8 -91 -8 -174 -1 -113 -4 -155 -15 -168 -36 -43 27 -29 130 30 53 30 89 42 89 30 0 -1 -5 -61 -10 -132 -7 -91 -23 -182 -54 -309 -25 -99 -47 -193 -51 -210 -11 -57 -25 -110 -50 -200 -40 -141 -46 -167 -40 -173 3 -3 41 33 85 80 59 64 93 111 126 179 l47 92 -14 91 c-17 112 -17 225 -1 289 7 26 16 66 22 90 36 163 55 241 73 300 11 37 17 70 14 74 -4 3 -38 -8 -77 -25 -39 -17 -76 -30 -83 -28 -7 2 -52 10 -100 17 -74 10 -87 15 -81 28 9 20 18 141 11 141 -3 0 -9 -10 -13 -22z"/> <path d="M2055 2663 c-11 -2 -29 -8 -40 -13 -11 -4 -27 -11 -35 -14 -54 -23 -65 -36 -66 -76 0 -50 9 -51 103 -8 15 8 34 6 69 -6 71 -24 113 -21 146 11 34 32 35 44 7 62 -19 11 -21 11 -16 -3 11 -28 -30 -19 -86 19 -28 19 -54 34 -57 34 -3 -1 -14 -3 -25 -6z"/> <path d="M2450 2590 c0 -5 15 -10 33 -9 27 0 29 2 12 9 -28 12 -45 12 -45 0z"/> <path d="M2960 2576 c0 -7 6 -26 14 -40 13 -25 14 -25 19 -6 3 11 1 20 -4 20 -5 0 -9 9 -9 20 0 11 -4 20 -10 20 -5 0 -10 -6 -10 -14z"/> <path d="M2940 2511 c0 -11 -4 -23 -10 -26 -15 -9 -12 -48 4 -71 21 -27 28 -13 13 26 -9 26 -9 34 1 37 14 5 17 53 2 53 -5 0 -10 -9 -10 -19z"/> <path d="M1803 2453 c-14 -5 -18 -33 -5 -33 5 0 17 9 27 20 18 20 8 26 -22 13z"/> <path d="M2905 2418 c-4 -10 -4 -22 0 -28 3 -5 -1 -10 -9 -10 -9 0 -16 -6 -16 -13 0 -7 -9 -32 -20 -55 -35 -72 -24 -77 37 -16 31 32 51 60 45 62 -7 2 -12 13 -12 25 0 12 -4 29 -10 37 -8 12 -10 12 -15 -2z"/> <path d="M2983 2395 c-33 -32 -28 -40 7 -15 17 12 30 26 30 31 0 14 -13 9 -37 -16z"/> <path d="M3280 2405 c0 -8 5 -15 10 -15 6 0 10 7 10 15 0 8 -4 15 -10 15 -5 0 -10 -7 -10 -15z"/> <path d="M1510 2386 c0 -9 7 -16 16 -16 17 0 14 22 -4 28 -7 2 -12 -3 -12 -12z"/> <path d="M3540 2373 c0 -10 -9 -40 -19 -68 -10 -27 -24 -77 -31 -110 -6 -33 -18 -70 -26 -82 -7 -11 -87 -71 -178 -132 -91 -61 -168 -115 -171 -121 -3 -5 -15 -10 -26 -10 -20 0 -26 -15 -9 -25 7 -4 99 52 120 75 14 14 83 43 109 45 48 4 55 -9 20 -36 -18 -13 -37 -28 -43 -34 -13 -11 -18 -14 -181 -108 -66 -38 -148 -85 -183 -104 -35 -18 -80 -44 -101 -58 -22 -13 -61 -34 -87 -46 -27 -13 -51 -25 -54 -28 -6 -7 -12 -10 -140 -79 -88 -47 -106 -52 -237 -73 -118 -19 -143 -26 -143 -40 0 -9 6 -54 14 -100 8 -46 17 -108 21 -137 5 -39 15 -63 36 -87 16 -18 29 -37 29 -41 0 -5 17 -9 38 -10 37 -1 72 -13 104 -36 14 -10 22 -6 50 23 18 20 62 62 98 94 36 32 153 144 260 249 252 246 428 409 452 418 10 4 21 16 25 25 4 10 30 50 59 88 70 95 196 312 205 355 19 93 27 126 34 142 4 11 0 20 -14 27 -12 7 -18 17 -15 26 4 8 1 15 -5 15 -6 0 -11 -8 -11 -17z m-552 -785 c-6 -16 -36 -34 -44 -25 -9 9 15 37 33 37 8 0 13 -5 11 -12z m-74 -24 c4 -9 4 -25 0 -36 -3 -10 0 -25 6 -33 10 -12 9 -15 -4 -15 -9 0 -19 -7 -22 -15 -4 -8 -15 -15 -25 -15 -18 0 -23 -10 -19 -39 1 -8 -4 -12 -14 -8 -10 4 -13 1 -9 -9 3 -8 -1 -14 -11 -14 -9 0 -16 -7 -16 -16 0 -12 -6 -15 -21 -11 -17 5 -20 2 -16 -13 6 -23 -41 -48 -55 -28 -12 19 -29 -11 -21 -37 5 -17 4 -18 -10 -7 -9 8 -18 9 -21 3 -4 -5 -2 -13 4 -16 12 -8 -5 -35 -22 -35 -6 0 -4 7 3 17 12 14 12 16 -1 11 -8 -3 -15 -16 -15 -29 0 -29 -34 -41 -36 -12 -1 16 -2 16 -6 -2 -6 -22 -112 -125 -130 -125 -6 0 -15 -9 -18 -20 -7 -21 -17 -25 -29 -13 -4 4 -19 7 -34 8 -21 0 -27 4 -25 20 1 11 0 14 -3 8 -10 -24 -26 -14 -20 12 4 14 2 25 -4 25 -5 0 -10 -4 -10 -10 0 -5 -8 -10 -17 -10 -15 0 -15 2 -4 9 11 7 14 31 14 94 -1 66 2 84 12 81 7 -3 16 -1 20 5 3 6 15 11 26 11 10 0 28 6 39 12 14 9 22 10 31 1 10 -10 52 10 96 47 7 5 17 10 22 10 6 0 40 16 77 35 72 38 94 43 94 19 0 -8 4 -13 9 -10 5 3 7 16 4 27 -4 14 0 25 11 31 9 5 16 18 16 30 0 17 2 18 15 8 21 -17 32 -4 17 20 -10 16 -10 20 2 20 8 0 16 -5 18 -11 2 -7 13 -9 27 -4 14 4 20 12 17 21 -3 8 1 14 10 14 10 0 14 -6 10 -15 -3 -8 -1 -15 4 -15 6 0 10 9 10 20 0 24 15 26 24 4z m43 -50 c-9 -9 -28 6 -21 18 4 6 10 6 17 -1 6 -6 8 -13 4 -17z m-203 -223 c3 -5 -1 -11 -9 -15 -9 -3 -15 0 -15 9 0 16 16 20 24 6z"/> <path d="M3260 2328 c0 -19 2 -20 10 -8 13 19 13 30 0 30 -5 0 -10 -10 -10 -22z"/> <path d="M3221 2200 c0 -33 1 -34 11 -12 8 17 8 26 0 34 -9 9 -12 4 -11 -22z"/> <path d="M3023 1816 c-13 -6 -23 -14 -23 -18 0 -5 -5 -8 -11 -8 -6 0 -30 -13 -54 -30 -24 -16 -48 -30 -54 -30 -6 0 -11 -4 -11 -10 0 -5 -5 -10 -11 -10 -6 0 -29 -13 -52 -28 -23 -16 -58 -36 -77 -45 -19 -10 -57 -31 -85 -48 -27 -16 -57 -32 -65 -35 -18 -6 -64 -74 -51 -74 5 0 11 4 13 8 4 12 106 82 118 82 5 0 10 3 10 8 0 4 10 12 23 18 57 28 142 76 147 83 3 4 23 15 45 25 22 11 44 25 48 32 4 8 17 14 27 14 10 0 25 8 32 18 7 10 25 22 41 26 15 3 27 13 27 21 0 17 -6 17 -37 1z"/> <path d="M2300 1750 c-19 -6 -10 -8 35 -9 42 0 56 2 45 9 -17 11 -45 11 -80 0z"/> <path d="M2410 1730 c0 -5 25 -10 56 -10 34 0 53 4 49 10 -3 6 -28 10 -56 10 -27 0 -49 -4 -49 -10z"/> <path d="M2586 1714 c-17 -12 -17 -14 -4 -14 9 0 20 5 23 11 11 17 2 18 -19 3z"/> <path d="M3230 1621 c0 -11 -4 -23 -10 -26 -5 -3 -10 -14 -10 -24 0 -10 -6 -24 -14 -30 -8 -7 -12 -21 -9 -31 4 -14 0 -20 -11 -20 -10 0 -16 -9 -16 -24 0 -13 -7 -27 -15 -30 -9 -3 -15 -11 -14 -18 1 -7 -3 -26 -9 -41 -7 -16 -12 -39 -12 -53 0 -15 -6 -24 -15 -24 -10 0 -15 -10 -15 -28 0 -15 -4 -32 -10 -38 -5 -5 -12 -32 -15 -59 -7 -57 -31 -87 -69 -87 -15 0 -29 -5 -32 -10 -7 -12 25 -37 48 -38 22 0 33 -19 19 -33 -6 -6 -11 -21 -11 -32 0 -12 -13 -31 -30 -43 -16 -13 -30 -27 -30 -33 0 -6 -7 -18 -16 -26 -14 -15 -15 -14 -12 3 2 12 -3 19 -12 19 -8 0 -16 -10 -18 -22 -2 -13 -9 -23 -15 -23 -7 0 -28 -14 -47 -30 -19 -16 -40 -34 -47 -40 -7 -5 -17 -10 -24 -10 -7 0 -9 -9 -5 -26 6 -22 4 -25 -13 -19 -16 5 -18 2 -14 -16 4 -12 0 -25 -8 -29 -7 -5 -11 -12 -7 -15 3 -4 19 5 35 18 15 14 47 40 70 59 192 152 213 172 224 213 5 22 16 54 24 70 7 17 16 46 20 65 6 33 39 142 55 185 4 11 13 40 20 65 6 25 16 53 21 62 5 10 9 25 9 33 0 8 4 23 9 33 5 9 14 37 21 62 7 25 16 55 21 68 12 30 11 42 -1 42 -5 0 -10 -9 -10 -19z"/> <path d="M3947 1594 c3 -11 17 -38 30 -61 31 -56 29 -69 -14 -118 -21 -24 -52 -62 -69 -86 -17 -24 -64 -89 -105 -144 -41 -55 -97 -134 -126 -175 -87 -125 -162 -231 -216 -307 -29 -39 -81 -113 -117 -163 -36 -51 -86 -121 -112 -156 -27 -36 -48 -69 -48 -73 0 -4 -9 -16 -20 -26 -11 -10 -20 -23 -20 -30 0 -7 -9 -20 -20 -30 -11 -10 -20 -21 -20 -26 0 -4 -27 -48 -60 -97 -33 -50 -60 -93 -60 -96 0 -3 27 -6 60 -6 51 0 58 2 53 16 -5 14 -1 16 23 11 16 -3 23 -4 17 -1 -21 9 -15 30 18 65 20 22 29 40 26 55 -3 17 0 20 15 16 20 -5 25 13 6 21 -9 4 -8 6 2 6 9 1 24 16 35 34 10 17 29 40 42 50 13 10 23 25 23 33 0 8 7 17 15 20 8 4 15 17 15 31 0 13 4 21 10 18 18 -11 32 5 19 21 -9 11 -6 18 15 35 14 11 26 27 26 35 0 8 4 14 10 14 5 0 7 7 4 15 -4 8 -1 15 4 15 6 0 12 6 15 12 2 7 3 6 2 -3 -3 -20 12 -49 25 -49 6 0 10 9 10 20 0 11 6 23 14 26 16 6 29 40 26 66 -1 10 3 18 9 18 6 0 21 17 35 38 13 20 36 51 52 67 16 17 27 36 26 43 -2 7 4 15 13 18 8 3 15 15 15 25 0 10 4 19 9 19 9 0 97 131 94 141 -1 4 17 26 40 50 23 24 49 56 57 71 8 15 30 43 48 62 22 24 30 40 25 52 -5 13 -3 16 10 11 12 -4 17 -1 17 11 1 9 14 28 30 42 17 13 30 32 30 42 0 10 7 18 15 18 8 0 15 -4 15 -10 0 -5 8 -10 19 -10 17 0 78 -79 94 -122 3 -10 11 -18 17 -18 5 0 10 -7 10 -16 0 -11 5 -14 16 -10 13 5 15 1 12 -18 -4 -18 2 -32 18 -47 13 -13 24 -29 24 -36 0 -8 7 -16 15 -19 10 -4 13 -14 9 -30 -4 -15 -2 -24 5 -24 6 0 11 6 11 13 0 7 10 21 22 31 l21 18 -6 -55 c-5 -52 -4 -56 19 -61 13 -4 24 -11 24 -16 0 -6 8 -10 19 -10 10 0 24 -6 30 -14 6 -7 25 -16 42 -20 19 -4 33 -13 36 -26 3 -11 10 -20 15 -20 12 0 132 -81 136 -92 2 -4 12 -8 23 -8 12 0 16 -5 13 -15 -5 -11 -2 -13 10 -9 10 4 32 -9 61 -34 26 -23 59 -44 75 -47 16 -4 32 -14 35 -24 3 -10 15 -23 28 -30 67 -36 80 -44 174 -114 36 -26 68 -46 71 -42 7 7 53 -23 68 -44 7 -9 28 -23 48 -31 20 -7 36 -17 36 -22 0 -4 14 -21 30 -38 35 -36 40 -70 10 -70 -23 0 -24 -4 -10 -30 8 -15 6 -20 -10 -25 -11 -3 -20 -13 -20 -21 0 -8 -3 -14 -7 -14 -5 0 -21 -10 -36 -23 -20 -15 -26 -27 -22 -40 7 -18 45 -24 45 -7 0 6 9 10 19 10 11 0 22 4 25 9 3 5 16 11 29 15 13 3 70 27 128 54 57 27 119 55 137 63 17 8 32 18 32 24 0 5 -22 21 -48 34 -59 30 -714 464 -732 486 -7 8 -17 15 -22 15 -5 0 -43 24 -85 53 -42 28 -146 99 -232 157 -138 93 -156 109 -156 133 -1 16 -14 45 -30 65 -17 20 -45 56 -63 80 -34 45 -129 202 -172 285 -40 78 -69 106 -118 113 -39 6 -42 5 -35 -12z"/> <path d="M2253 932 c-11 -7 -26 -115 -40 -288 l-6 -71 67 -92 c80 -108 93 -112 171 -49 6 5 60 48 120 97 61 48 110 94 110 102 0 16 -243 254 -251 246 -3 -3 9 -27 25 -55 17 -27 31 -58 31 -68 0 -15 2 -16 9 -5 12 19 31 4 31 -25 0 -15 6 -24 15 -24 8 0 15 -6 15 -14 0 -8 2 -21 5 -28 4 -9 -5 -20 -20 -28 -15 -8 -23 -20 -20 -27 2 -8 0 -19 -5 -26 -24 -28 -61 -83 -66 -99 -4 -10 -9 -18 -13 -18 -7 0 -24 38 -42 95 -6 22 -20 59 -31 82 -10 24 -18 47 -18 52 0 4 -13 49 -30 99 -16 50 -30 103 -30 116 0 28 -10 38 -27 28z"/> <path d="M2096 790 c-25 -38 -46 -72 -46 -75 0 -13 -94 -126 -114 -137 -12 -7 -137 -89 -277 -182 -411 -274 -514 -339 -578 -367 -17 -8 -31 -17 -31 -21 0 -5 56 -8 125 -8 77 0 125 4 125 10 0 6 9 10 21 10 15 0 19 5 15 15 -4 12 0 14 22 8 24 -6 25 -4 14 9 -14 17 0 34 18 23 17 -10 32 5 20 20 -8 10 -4 14 16 19 25 7 69 34 104 66 42 38 62 50 70 45 10 -6 130 72 143 93 5 7 17 10 28 7 14 -5 17 -3 13 10 -5 13 -2 15 18 10 19 -5 32 0 53 19 15 14 29 26 31 26 7 0 -5 -209 -14 -245 -6 -22 -13 -64 -17 -92 l-7 -53 39 0 c36 0 40 3 60 48 12 26 33 97 47 157 52 228 66 289 94 395 33 123 59 214 66 231 4 10 3 20 -2 23 -5 3 -30 -26 -56 -64z"/> <path d="M2239 312 c-87 -96 -97 -118 -104 -220 l-7 -93 48 3 49 3 7 45 c10 57 25 88 62 123 16 15 31 27 33 27 2 0 12 -9 24 -21 11 -11 28 -19 37 -17 22 4 63 -34 51 -48 -6 -7 -4 -16 6 -24 9 -7 15 -29 15 -51 l0 -39 45 0 c25 0 45 3 45 8 0 4 16 24 35 44 19 20 35 39 35 43 0 3 -53 60 -117 126 -112 114 -118 119 -158 119 -22 0 -46 5 -52 11 -7 7 -23 -4 -54 -39z"/> <path d="M3540 71 c-8 -6 -19 -7 -25 -3 -5 3 -4 -2 3 -11 11 -13 17 -14 33 -4 19 12 26 27 12 27 -5 0 -15 -4 -23 -9z"/> <path d="M2670 21 c0 -5 7 -12 16 -15 24 -9 28 -7 14 9 -14 17 -30 20 -30 6z"/> </g> </svg>